<mxfile host="app.diagrams.net" modified="2022-11-01T09:01:25.138Z" agent="5.0 (Windows NT 10.0; Win64; x64) AppleWebKit/537.36 (KHTML, like Gecko) Chrome/107.0.0.0 Safari/537.36" etag="mvI1t86dLcKBa5yKSckN" version="20.5.1" type="github">
  <diagram id="UcJCMl55EjCGCDBUz7oQ" name="Page-1">
    <mxGraphModel dx="981" dy="526" grid="1" gridSize="10" guides="1" tooltips="1" connect="1" arrows="1" fold="1" page="1" pageScale="1" pageWidth="850" pageHeight="1100" math="0" shadow="0">
      <root>
        <mxCell id="0" />
        <mxCell id="1" parent="0" />
        <mxCell id="FNp3MqdQNDzeuMjORnVR-1" value="" style="rounded=0;whiteSpace=wrap;html=1;" vertex="1" parent="1">
          <mxGeometry x="475" y="330" width="150" height="160" as="geometry" />
        </mxCell>
        <mxCell id="FNp3MqdQNDzeuMjORnVR-2" value="Question" style="text;html=1;strokeColor=none;fillColor=none;align=center;verticalAlign=middle;whiteSpace=wrap;rounded=0;" vertex="1" parent="1">
          <mxGeometry x="520" y="330" width="60" height="30" as="geometry" />
        </mxCell>
        <mxCell id="FNp3MqdQNDzeuMjORnVR-3" value="" style="rounded=0;whiteSpace=wrap;html=1;" vertex="1" parent="1">
          <mxGeometry x="155" y="550" width="180" height="130" as="geometry" />
        </mxCell>
        <mxCell id="FNp3MqdQNDzeuMjORnVR-4" value="Answer" style="text;html=1;strokeColor=none;fillColor=none;align=center;verticalAlign=middle;whiteSpace=wrap;rounded=0;" vertex="1" parent="1">
          <mxGeometry x="215" y="550" width="60" height="30" as="geometry" />
        </mxCell>
        <mxCell id="FNp3MqdQNDzeuMjORnVR-5" value="" style="rounded=0;whiteSpace=wrap;html=1;" vertex="1" parent="1">
          <mxGeometry x="355" y="550" width="150" height="120" as="geometry" />
        </mxCell>
        <mxCell id="FNp3MqdQNDzeuMjORnVR-6" value="Time" style="text;html=1;strokeColor=none;fillColor=none;align=center;verticalAlign=middle;whiteSpace=wrap;rounded=0;" vertex="1" parent="1">
          <mxGeometry x="400" y="550" width="60" height="30" as="geometry" />
        </mxCell>
        <mxCell id="FNp3MqdQNDzeuMjORnVR-7" value="" style="rounded=0;whiteSpace=wrap;html=1;" vertex="1" parent="1">
          <mxGeometry x="555" y="550" width="150" height="90" as="geometry" />
        </mxCell>
        <mxCell id="FNp3MqdQNDzeuMjORnVR-8" value="Globals" style="text;html=1;strokeColor=none;fillColor=none;align=center;verticalAlign=middle;whiteSpace=wrap;rounded=0;" vertex="1" parent="1">
          <mxGeometry x="600" y="550" width="60" height="30" as="geometry" />
        </mxCell>
        <mxCell id="FNp3MqdQNDzeuMjORnVR-10" value="" style="endArrow=classic;html=1;rounded=0;exitX=0.5;exitY=0;exitDx=0;exitDy=0;" edge="1" parent="1" source="FNp3MqdQNDzeuMjORnVR-5" target="FNp3MqdQNDzeuMjORnVR-1">
          <mxGeometry width="50" height="50" relative="1" as="geometry">
            <mxPoint x="435" y="550" as="sourcePoint" />
            <mxPoint x="485" y="500" as="targetPoint" />
          </mxGeometry>
        </mxCell>
        <mxCell id="FNp3MqdQNDzeuMjORnVR-11" value="" style="endArrow=classic;html=1;rounded=0;exitX=0.5;exitY=0;exitDx=0;exitDy=0;entryX=0.003;entryY=0.641;entryDx=0;entryDy=0;entryPerimeter=0;" edge="1" parent="1" target="FNp3MqdQNDzeuMjORnVR-13">
          <mxGeometry width="50" height="50" relative="1" as="geometry">
            <mxPoint x="225" y="550" as="sourcePoint" />
            <mxPoint x="225" y="490" as="targetPoint" />
          </mxGeometry>
        </mxCell>
        <mxCell id="FNp3MqdQNDzeuMjORnVR-12" value="" style="endArrow=classic;html=1;rounded=0;exitX=0.5;exitY=0;exitDx=0;exitDy=0;entryX=1;entryY=1;entryDx=0;entryDy=0;" edge="1" parent="1" source="FNp3MqdQNDzeuMjORnVR-7" target="FNp3MqdQNDzeuMjORnVR-1">
          <mxGeometry width="50" height="50" relative="1" as="geometry">
            <mxPoint x="585" y="550" as="sourcePoint" />
            <mxPoint x="715" y="483.4146341463413" as="targetPoint" />
          </mxGeometry>
        </mxCell>
        <mxCell id="FNp3MqdQNDzeuMjORnVR-13" value="&lt;ul&gt;&lt;li&gt;category (slug)&lt;/li&gt;&lt;li&gt;title&lt;/li&gt;&lt;li&gt;answer ( link )&lt;/li&gt;&lt;/ul&gt;" style="text;strokeColor=none;fillColor=none;html=1;whiteSpace=wrap;verticalAlign=top;overflow=hidden;align=left;horizontal=1;" vertex="1" parent="1">
          <mxGeometry x="475" y="360" width="150" height="130" as="geometry" />
        </mxCell>
        <mxCell id="FNp3MqdQNDzeuMjORnVR-14" value="&lt;ul&gt;&lt;li&gt;title&lt;/li&gt;&lt;li&gt;description&lt;/li&gt;&lt;li&gt;correct ( boolean )&lt;/li&gt;&lt;li&gt;category ( slug )&lt;/li&gt;&lt;/ul&gt;" style="text;strokeColor=none;fillColor=none;html=1;whiteSpace=wrap;verticalAlign=top;overflow=hidden;align=left;horizontal=1;" vertex="1" parent="1">
          <mxGeometry x="155" y="570" width="180" height="70" as="geometry" />
        </mxCell>
        <mxCell id="FNp3MqdQNDzeuMjORnVR-15" value="" style="rounded=0;whiteSpace=wrap;html=1;" vertex="1" parent="1">
          <mxGeometry x="185" y="380" width="150" height="90" as="geometry" />
        </mxCell>
        <mxCell id="FNp3MqdQNDzeuMjORnVR-16" value="category" style="text;html=1;strokeColor=none;fillColor=none;align=center;verticalAlign=middle;whiteSpace=wrap;rounded=0;" vertex="1" parent="1">
          <mxGeometry x="230" y="380" width="60" height="30" as="geometry" />
        </mxCell>
        <mxCell id="FNp3MqdQNDzeuMjORnVR-17" value="" style="edgeStyle=elbowEdgeStyle;elbow=vertical;endArrow=classic;html=1;rounded=0;entryX=0;entryY=0.444;entryDx=0;entryDy=0;entryPerimeter=0;" edge="1" parent="1" source="FNp3MqdQNDzeuMjORnVR-14" target="FNp3MqdQNDzeuMjORnVR-15">
          <mxGeometry width="50" height="50" relative="1" as="geometry">
            <mxPoint x="95" y="610" as="sourcePoint" />
            <mxPoint x="135" y="520" as="targetPoint" />
            <Array as="points">
              <mxPoint x="145" y="500" />
              <mxPoint x="145" y="420" />
              <mxPoint x="165" y="420" />
            </Array>
          </mxGeometry>
        </mxCell>
        <mxCell id="FNp3MqdQNDzeuMjORnVR-18" value="&lt;ul&gt;&lt;li&gt;title&lt;/li&gt;&lt;li&gt;slug&lt;/li&gt;&lt;/ul&gt;" style="text;strokeColor=none;fillColor=none;html=1;whiteSpace=wrap;verticalAlign=top;overflow=hidden;align=left;horizontal=1;" vertex="1" parent="1">
          <mxGeometry x="185" y="400" width="150" height="70" as="geometry" />
        </mxCell>
        <mxCell id="FNp3MqdQNDzeuMjORnVR-19" value="" style="endArrow=classic;html=1;rounded=0;exitX=-0.025;exitY=0.211;exitDx=0;exitDy=0;exitPerimeter=0;entryX=1;entryY=0;entryDx=0;entryDy=0;" edge="1" parent="1" source="FNp3MqdQNDzeuMjORnVR-13" target="FNp3MqdQNDzeuMjORnVR-18">
          <mxGeometry width="50" height="50" relative="1" as="geometry">
            <mxPoint x="405" y="390" as="sourcePoint" />
            <mxPoint x="455" y="340" as="targetPoint" />
          </mxGeometry>
        </mxCell>
        <mxCell id="FNp3MqdQNDzeuMjORnVR-21" value="&lt;ul&gt;&lt;li&gt;category&amp;nbsp;&lt;/li&gt;&lt;li&gt;total&lt;/li&gt;&lt;li&gt;average time&lt;/li&gt;&lt;li&gt;date&lt;/li&gt;&lt;/ul&gt;" style="text;strokeColor=none;fillColor=none;html=1;whiteSpace=wrap;verticalAlign=top;overflow=hidden;align=left;horizontal=1;" vertex="1" parent="1">
          <mxGeometry x="355" y="570" width="150" height="70" as="geometry" />
        </mxCell>
        <mxCell id="FNp3MqdQNDzeuMjORnVR-22" value="" style="edgeStyle=elbowEdgeStyle;elbow=vertical;endArrow=classic;html=1;rounded=0;entryX=0.25;entryY=1;entryDx=0;entryDy=0;exitX=0.177;exitY=-0.036;exitDx=0;exitDy=0;exitPerimeter=0;" edge="1" parent="1" source="FNp3MqdQNDzeuMjORnVR-5" target="FNp3MqdQNDzeuMjORnVR-18">
          <mxGeometry width="50" height="50" relative="1" as="geometry">
            <mxPoint x="155" y="615.0000000000001" as="sourcePoint" />
            <mxPoint x="185" y="429.9599999999999" as="targetPoint" />
            <Array as="points">
              <mxPoint x="305" y="510" />
              <mxPoint x="165" y="740" />
              <mxPoint x="85" y="560" />
              <mxPoint x="75" y="660" />
              <mxPoint x="325" y="730" />
              <mxPoint x="145" y="510" />
              <mxPoint x="145" y="430" />
              <mxPoint x="165" y="430" />
            </Array>
          </mxGeometry>
        </mxCell>
        <mxCell id="FNp3MqdQNDzeuMjORnVR-23" value="&lt;ul&gt;&lt;li&gt;title&lt;/li&gt;&lt;li&gt;desc&lt;/li&gt;&lt;/ul&gt;" style="text;strokeColor=none;fillColor=none;html=1;whiteSpace=wrap;verticalAlign=top;overflow=hidden;align=left;horizontal=1;" vertex="1" parent="1">
          <mxGeometry x="580" y="580" width="100" height="55" as="geometry" />
        </mxCell>
      </root>
    </mxGraphModel>
  </diagram>
</mxfile>
